<svg height="24" width="297" viewBox="0 0 297 24" xmlns="http://www.w3.org/2000/svg">
  <path fill="#38bdf8" fill-rule="evenodd" d="M19.418.523c-5.178 0-8.415 2.589-9.71 7.767 1.943-2.59 4.208-3.56 6.797-2.913 1.477.37 2.533 1.44 3.702 2.627 1.903 1.933 4.107 4.17 8.92 4.17 5.178 0 8.414-2.59 9.708-7.768-1.941 2.59-4.207 3.56-6.796 2.913-1.477-.37-2.533-1.441-3.702-2.628C26.434 2.76 24.23.523 19.417.523zm-9.71 11.65c-5.177 0-8.413 2.59-9.708 7.767 1.942-2.589 4.207-3.56 6.796-2.913 1.477.37 2.533 1.441 3.702 2.628 1.904 1.932 4.107 4.169 8.92 4.169 5.178 0 8.414-2.59 9.709-7.767-1.942 2.589-4.208 3.56-6.797 2.912-1.477-.369-2.533-1.44-3.701-2.627-1.904-1.932-4.108-4.169-8.92-4.169z" clip-rule="evenodd"></path>
  <path fill="#0f172a" d="M59.31 8.962v-2.79h-3.328V2.414l-2.898.858v2.898h-2.468v2.79h2.468v6.44c0 3.489 1.771 4.723 6.225 4.186v-2.602c-2.2.107-3.327.134-3.327-1.584v-6.44h3.327zM72.013 6.171v1.905c-1.02-1.395-2.603-2.254-4.696-2.254-3.649 0-6.68 3.06-6.68 7.057 0 3.971 3.031 7.057 6.68 7.057 2.093 0 3.676-.859 4.696-2.28v1.931h2.897V6.171h-2.897zm-4.24 11.001c-2.415 0-4.24-1.797-4.24-4.293 0-2.495 1.825-4.293 4.24-4.293s4.24 1.798 4.24 4.293c0 2.496-1.825 4.293-4.24 4.293zM79.737 4.159c1.02 0 1.852-.859 1.852-1.851 0-1.02-.832-1.852-1.852-1.852s-1.851.832-1.851 1.852c0 .992.832 1.85 1.851 1.85zm-1.449 15.428h2.898V6.171h-2.898v13.416zM84.55 19.587h2.898V0h-2.897v19.587zM106.268 6.171l-2.629 9.257-2.791-9.257h-2.763l-2.818 9.257-2.602-9.257h-3.06l4.213 13.416h2.844l2.818-9.042 2.79 9.042h2.844l4.213-13.416h-3.059zM112.91 4.159c1.019 0 1.851-.859 1.851-1.851 0-1.02-.832-1.852-1.851-1.852-1.02 0-1.852.832-1.852 1.852 0 .992.832 1.85 1.852 1.85zm-1.449 15.428h2.898V6.171h-2.898v13.416zM124.78 5.822c-1.824 0-3.273.671-4.159 2.067V6.17h-2.898v13.416h2.898v-7.19c0-2.738 1.503-3.865 3.408-3.865 1.824 0 3.005 1.074 3.005 3.113v7.942h2.898V11.35c0-3.488-2.147-5.528-5.152-5.528zM143.677.805v7.271c-1.019-1.395-2.602-2.254-4.695-2.254-3.649 0-6.681 3.06-6.681 7.057 0 3.971 3.032 7.057 6.681 7.057 2.093 0 3.676-.859 4.695-2.28v1.931h2.898V.805h-2.898zm-4.239 16.367c-2.415 0-4.239-1.797-4.239-4.293 0-2.495 1.824-4.293 4.239-4.293s4.239 1.798 4.239 4.293c0 2.496-1.824 4.293-4.239 4.293z"></path>
  <path fill="#38bdf8" d="M161.544 5.748h-10.182v2.61h3.717v11.23h2.728V8.357h3.737v-2.61zM175.997 5.748h-3.084l-3.005 5.773-3.006-5.773h-3.084l4.725 8.442v5.397h2.709V14.19l4.745-8.442zM184.461 5.748h-5.16v13.84h2.728V15.04h2.432c2.669 0 4.725-2.056 4.725-4.646s-2.056-4.646-4.725-4.646zm0 6.741h-2.432V8.3h2.432c1.166 0 2.016.889 2.016 2.095 0 1.186-.85 2.095-2.016 2.095zM199.387 19.864c3.994 0 7.196-3.163 7.196-7.197 0-4.053-3.202-7.196-7.196-7.196-3.994 0-7.177 3.143-7.177 7.196 0 4.034 3.183 7.197 7.177 7.197zm0-2.67c-2.511 0-4.468-1.877-4.468-4.527 0-2.669 1.957-4.547 4.468-4.547s4.468 1.878 4.468 4.547c0 2.65-1.957 4.528-4.468 4.528zM224.061 12.153h-6.94v2.412h4.191c-.474 1.582-1.858 2.63-4.033 2.63-2.886 0-4.725-1.938-4.725-4.508 0-2.63 1.898-4.567 4.527-4.567 1.681 0 3.085.81 3.717 1.918l2.333-1.345c-1.166-1.897-3.4-3.222-6.03-3.222-4.132 0-7.256 3.203-7.256 7.216 0 3.954 3.085 7.177 7.414 7.177 3.974 0 6.802-2.65 6.802-6.643v-1.068zM235.57 19.587h2.946l-3.064-5.22c1.581-.73 2.669-2.293 2.669-4.033 0-2.53-2.057-4.586-4.607-4.586h-5.536v13.84h2.729v-4.805h2.076l2.787 4.804zm-4.863-11.289h2.807c1.028 0 1.878.89 1.878 2.037 0 1.146-.85 2.056-1.878 2.056h-2.807V8.298zM250.996 19.587h2.966l-4.864-13.84h-3.38l-4.844 13.84h2.946l.83-2.491h5.516l.83 2.491zm-5.476-5.041l1.898-5.655 1.898 5.655h-3.796zM262.443 5.748h-5.16v13.84h2.728V15.04h2.432c2.669 0 4.725-2.056 4.725-4.646s-2.056-4.646-4.725-4.646zm0 6.741h-2.432V8.3h2.432c1.167 0 2.017.889 2.017 2.095 0 1.186-.85 2.095-2.017 2.095zM278.79 5.748v5.496h-5.14V5.748h-2.728v13.84h2.728v-5.734h5.14v5.733h2.709V5.747h-2.709zM297 5.748h-3.084l-3.005 5.773-3.006-5.773h-3.084l4.725 8.442v5.397h2.709V14.19L297 5.748z"></path>
</svg>